<?xml version="1.0" encoding="utf-8"?>
<svg xmlns="http://www.w3.org/2000/svg" viewBox="0 0 500 500">
  <g id="Capa_1">
    <g id="SVGRepo_bgCarrier" stroke-width="0" transform="matrix(1, 0, 0, 1, 210.359787, 188.40033)"/>
    <g id="SVGRepo_tracerCarrier" stroke-linecap="round" stroke-linejoin="round" transform="matrix(1, 0, 0, 1, 210.359787, 188.40033)"/>
    <g id="SVGRepo_iconCarrier" transform="matrix(1, 0, 0, 1, 210.359787, 188.40033)">
      <g>
        <g>
          <g>
            <path style="fill: rgb(6, 71, 146); paint-order: fill; stroke: rgb(6, 71, 146);" d="M 173.347 276.492 L -122.78 276.492 C -140.55 276.492 -154.98 259.95 -154.98 239.626 L -154.98 26.862 C -154.98 6.526 -140.55 -10.008 -122.78 -10.008 L 173.347 -10.008 C 191.104 -10.008 205.548 6.534 205.548 26.862 L 205.548 239.626 C 205.548 259.96 191.104 276.492 173.347 276.492 Z M -121.88 238.577 L 172.433 238.577 L 172.433 27.907 L -121.88 27.907 L -121.88 238.577 Z"/>
          </g>
          <g>
            <path style="fill: rgb(6, 71, 146); paint-order: fill; stroke: rgb(6, 71, 146);" d="M 168.687 -35.295 L -118.13 -35.295 C -127.27 -35.295 -134.68 -43.783 -134.68 -54.259 C -134.68 -64.724 -127.27 -73.228 -118.13 -73.228 L 168.687 -73.228 C 177.825 -73.228 185.239 -64.724 185.239 -54.259 C 185.239 -43.783 177.825 -35.295 168.687 -35.295 Z"/>
          </g>
          <g>
            <path style="fill: rgb(6, 71, 146); paint-order: fill; stroke: rgb(6, 71, 146);" d="M 127.581 -98.493 L -77.033 -98.493 C -86.175 -98.493 -93.582 -106.98 -93.582 -117.44 C -93.582 -127.91 -86.175 -136.4 -77.033 -136.4 L 127.581 -136.4 C 136.731 -136.4 144.143 -127.91 144.143 -117.44 C 144.143 -106.98 136.731 -98.493 127.581 -98.493 Z"/>
          </g>
        </g>
      </g>
    </g>
  </g>
  <rect x="83" y="208.5" width="305.282" height="224.769" style="fill: rgb(6, 71, 146); paint-order: fill; stroke: rgb(6, 71, 146);"/>
</svg>